<?xml version="1.0" encoding="UTF-8" standalone="no" ?>
<!DOCTYPE svg PUBLIC "-//W3C//DTD SVG 1.1//EN" "http://www.w3.org/Graphics/SVG/1.1/DTD/svg11.dtd">
<svg xmlns="http://www.w3.org/2000/svg" xmlns:xlink="http://www.w3.org/1999/xlink" version="1.1" width="1080" height="1080" viewBox="0 0 1080 1080" xml:space="preserve">
<desc>Created with Fabric.js 5.2.4</desc>
<defs>
</defs>
<g transform="matrix(1 0 0 1 540 540)" id="b5644a27-5e61-4dc5-b346-4f2883768746"  >
<rect style="stroke: none; stroke-width: 1; stroke-dasharray: none; stroke-linecap: butt; stroke-dashoffset: 0; stroke-linejoin: miter; stroke-miterlimit: 4; fill: rgb(255,255,255); fill-rule: nonzero; opacity: 1; visibility: hidden;" vector-effect="non-scaling-stroke"  x="-540" y="-540" rx="0" ry="0" width="1080" height="1080" />
</g>
<g transform="matrix(1 0 0 1 540 540)" id="276bc151-e678-4252-97af-7c84e7097244"  >
</g>
<g transform="matrix(1 0 0 1 540 540)" id="7cf64df5-8a44-464d-82a8-611b7e3fcd83"  >
<path style="stroke: rgb(0,0,0); stroke-width: 0; stroke-dasharray: none; stroke-linecap: butt; stroke-dashoffset: 0; stroke-linejoin: miter; stroke-miterlimit: 4; fill: rgb(255,255,255); fill-rule: nonzero; opacity: 1;" vector-effect="non-scaling-stroke"  transform=" translate(-240, -180)" d="M 280.75552 -326.26361 C 305.8262 -262.69675 380.16274999999996 -74.21595000000002 380.16274999999996 -74.21595000000002 C 392.73571 -42.33455000000002 399.01885999999996 -26.393860000000018 408.64761999999996 -12.952370000000023 C 417.17902999999995 -1.0378500000000237 427.61078 9.393899999999977 439.52799999999996 17.927329999999976 C 452.97081999999995 27.553439999999977 468.90952999999996 33.84059999999998 500.79359 46.414209999999976 C 500.79359 46.414209999999976 669.3705199999999 112.90044999999998 733.01208 138.00048999999999 C 777.4369399999999 155.52151999999998 786.8339599999999 206.02814999999998 746.13459 222.08002 C 682.39548 247.21877999999998 500.79359 318.84272 500.79359 318.84272 C 468.90953 331.41568 452.97082 337.69883 439.528 347.32759 C 427.61079 355.859 417.17903 366.29075 408.64762 378.20797 C 399.01882 391.65079 392.73571000000004 407.5895 380.16275 439.47356 C 380.16275 439.47356 306.06198 625.59451 281.17529 688.69452 C 266.98056 724.68514 225.46401000000003 722.81574 211.63421000000002 687.75004 C 186.83540000000002 624.87224 107.73424000000003 439.47356 107.73424000000003 439.47356 C 95.16059000000003 407.58950000000004 88.87347000000003 391.65079000000003 79.24736000000003 378.20797000000005 C 70.71394000000004 366.29076000000003 60.28219000000003 355.85900000000004 48.36766000000003 347.32759000000004 C 34.92616000000003 337.69879000000003 18.985480000000027 331.41568000000007 -12.895919999999968 318.84272000000004 C -12.895919999999968 318.84272000000004 -197.78778999999997 245.92162000000005 -261.4643 220.80770000000004 C -301.2023 205.13509000000005 -302.58765999999997 160.66709000000003 -263.45092 145.23178000000004 C -199.83159999999998 120.14065000000005 -12.89591999999999 46.41421000000004 -12.89591999999999 46.41421000000004 C 18.98548000000001 33.84056000000004 34.92617000000001 27.55344000000004 48.36766000000001 17.92733000000004 C 60.28218000000001 9.39391000000004 70.71393 -1.0378399999999601 79.24736000000001 -12.95236999999996 C 88.87347000000001 -26.393869999999957 95.16063000000001 -42.334549999999965 107.73424000000001 -74.21594999999996 C 107.73424000000001 -74.21594999999996 181.64712000000003 -261.62429 206.73224000000002 -325.22840999999994 C 222.11257 -364.22570999999994 265.50003000000004 -364.94399999999996 280.75553 -326.2636099999999 z" stroke-linecap="round" />
</g>
</svg>